<svg width="111" height="99" viewBox="0 0 111 99" fill="none" xmlns="http://www.w3.org/2000/svg">
<rect width="111" height="99" fill="#1E1E1E"/>
<circle cx="55.5" cy="49.5" r="49.5" fill="#D9D9D9"/>
<path d="M41.5 50V41L41.1277 40.4415C36.0363 32.8044 25.3748 31.4185 18.5 37.5C14.4119 41.5881 12.506 47.3733 13.3636 53.0907L13.5 54L13.7438 55.0563C15.4239 62.3371 21.1849 67.976 28.5 69.5V62L25.8074 60.9903C24.9402 60.6651 24.1129 60.2096 23.3719 59.6539C21.5368 58.2776 20.2265 56.2691 19.7288 54.0298C19.5767 53.3453 19.5 52.6463 19.5 51.9451V51.3031C19.5 49.4495 19.8334 47.611 20.4842 45.8754L21 44.5C21.9353 42.6294 23.755 41.3606 25.8336 41.1296L27.3527 40.9608C29.9824 40.6686 32.607 41.5517 34.5253 43.374L41.5 50Z" fill="black" stroke="black"/>
<path d="M68.4 48.5V57.5L68.7723 58.0585C73.8637 65.6956 84.5252 67.0815 91.4 61C95.4881 56.9119 97.394 51.1267 96.5364 45.4093L96.4 44.5L96.1563 43.4437C94.4761 36.1629 88.7151 30.524 81.4 29V36.5L84.0926 37.5097C84.9598 37.8349 85.7871 38.2904 86.5281 38.8461C88.3632 40.2224 89.6735 42.2309 90.1712 44.4702C90.3233 45.1547 90.4 45.8537 90.4 46.5549V47.1969C90.4 49.0505 90.0666 50.889 89.4158 52.6246L88.9 54C87.9647 55.8706 86.145 57.1394 84.0664 57.3704L82.5473 57.5392C79.9176 57.8314 77.293 56.9483 75.3747 55.126L68.4 48.5Z" fill="black" stroke="black"/>
<path d="M59 36.5385V47.2535C59 47.3433 58.8908 47.3876 58.8283 47.3231L49.6717 37.8931C49.6092 37.8287 49.5 37.873 49.5 37.9628V71.9C49.5 71.9552 49.4552 72 49.4 72H43.1011C43.0454 72 43.0005 71.9546 43.0011 71.8989L43.4989 26.0989C43.4995 26.0441 43.5441 26 43.5989 26H49.4556C49.4839 26 49.5108 26.012 49.5298 26.0329L58.9742 36.4714C58.9908 36.4898 59 36.5137 59 36.5385Z" fill="black" stroke="black"/>
<path d="M51 61.4615V50.7465C51 50.6567 51.1092 50.6124 51.1717 50.6769L60.3283 60.1069C60.3908 60.1713 60.5 60.127 60.5 60.0372L60.5 26.1C60.5 26.0448 60.5448 26 60.6 26H66.8989C66.9546 26 66.9995 26.0454 66.9989 26.1011L66.5011 71.9011C66.5005 71.9559 66.4559 72 66.4011 72H60.5444C60.5161 72 60.4892 71.988 60.4702 71.9671L51.0258 61.5286C51.0092 61.5102 51 61.4863 51 61.4615Z" fill="black" stroke="black"/>
</svg>
