<svg width="111" height="48" viewBox="0 0 111 48" fill="none" xmlns="http://www.w3.org/2000/svg">
<path d="M41.5 25V16L41.1277 15.4415C36.0363 7.80444 25.3748 6.41848 18.5 12.5C14.4119 16.5881 12.506 22.3733 13.3636 28.0907L13.5 29L13.7438 30.0563C15.4239 37.3371 21.1849 42.976 28.5 44.5V37L25.8074 35.9903C24.9402 35.6651 24.1129 35.2096 23.3719 34.6539C21.5368 33.2776 20.2265 31.2691 19.7288 29.0298C19.5767 28.3453 19.5 27.6463 19.5 26.9451V26.3031C19.5 24.4495 19.8334 22.611 20.4842 20.8754L21 19.5C21.9353 17.6294 23.755 16.3606 25.8336 16.1296L27.3527 15.9608C29.9824 15.6686 32.607 16.5517 34.5253 18.374L41.5 25Z" fill="black" stroke="black"/>
<path d="M68.4 23.5V32.5L68.7723 33.0585C73.8637 40.6956 84.5252 42.0815 91.4 36C95.4881 31.9119 97.394 26.1267 96.5364 20.4093L96.4 19.5L96.1563 18.4437C94.4761 11.1629 88.7151 5.52398 81.4 4V11.5L84.0926 12.5097C84.9598 12.8349 85.7871 13.2904 86.5281 13.8461C88.3632 15.2224 89.6735 17.2309 90.1712 19.4702C90.3233 20.1547 90.4 20.8537 90.4 21.5549V22.1969C90.4 24.0505 90.0666 25.889 89.4158 27.6246L88.9 29C87.9647 30.8706 86.145 32.1394 84.0664 32.3704L82.5473 32.5392C79.9176 32.8314 77.293 31.9483 75.3747 30.126L68.4 23.5Z" fill="black" stroke="black"/>
<path d="M59 11.5385V22.2535C59 22.3433 58.8908 22.3876 58.8283 22.3231L49.6717 12.8931C49.6092 12.8287 49.5 12.873 49.5 12.9628V46.9C49.5 46.9552 49.4552 47 49.4 47H43.1011C43.0454 47 43.0005 46.9546 43.0011 46.8989L43.4989 1.09891C43.4995 1.04411 43.5441 1 43.5989 1H49.4556C49.4839 1 49.5108 1.01196 49.5298 1.03291L58.9742 11.4714C58.9908 11.4898 59 11.5137 59 11.5385Z" fill="black" stroke="black"/>
<path d="M51 36.4615V25.7465C51 25.6567 51.1092 25.6124 51.1717 25.6769L60.3283 35.1069C60.3908 35.1713 60.5 35.127 60.5 35.0372L60.5 1.1C60.5 1.04477 60.5448 1 60.6 1H66.8989C66.9546 1 66.9995 1.04544 66.9989 1.10109L66.5011 46.9011C66.5005 46.9559 66.4559 47 66.4011 47H60.5444C60.5161 47 60.4892 46.988 60.4702 46.9671L51.0258 36.5286C51.0092 36.5102 51 36.4863 51 36.4615Z" fill="black" stroke="black"/>
</svg>
